<svg width="560" height="400" viewBox="0 0 560 400" fill="none" xmlns="http://www.w3.org/2000/svg">
  <g clip-path="url(#clip0_diseno)">
    <!-- Fondo suave -->
    <rect x="36" y="36" width="488" height="328" rx="20" fill="#3C3D5E" fill-opacity="0.05"/>
    
    <!-- Planos arquitectónicos -->
    <rect x="80" y="80" width="400" height="240" rx="12" fill="white" stroke="#DCD3D1" stroke-width="2"/>
    
    <!-- Líneas de plano -->
    <path d="M120 120L200 120L200 200L320 200L320 280L440 280" stroke="#3C3D5E" stroke-width="3" fill="none"/>
    <path d="M120 160L180 160" stroke="#CFBAAD" stroke-width="2"/>
    <path d="M220 140L280 140" stroke="#CFBAAD" stroke-width="2"/>
    <path d="M340 220L400 220" stroke="#CFBAAD" stroke-width="2"/>
    
    <!-- Elementos de diseño -->
    <rect x="140" y="180" width="40" height="40" rx="4" fill="#3E3F5F" opacity="0.3"/>
    <circle cx="280" cy="160" r="15" fill="#CFBAAD" opacity="0.6"/>
    <rect x="360" y="240" width="30" height="20" rx="3" fill="#232340" opacity="0.4"/>
    
    <!-- Regla de arquitecto -->
    <rect x="90" y="340" width="200" height="8" rx="4" fill="#3C3D5E"/>
    <rect x="110" y="338" width="2" height="12" fill="#CFBAAD"/>
    <rect x="150" y="338" width="2" height="12" fill="#CFBAAD"/>
    <rect x="190" y="338" width="2" height="12" fill="#CFBAAD"/>
    
    <!-- Lápiz -->
    <rect x="320" y="340" width="100" height="6" rx="3" fill="#DCD3D1"/>
    <rect x="420" y="338" width="20" height="10" rx="5" fill="#3E3F5F"/>
  </g>
  
  <defs>
    <clipPath id="clip0_diseno">
      <rect width="560" height="400" fill="white"/>
    </clipPath>
  </defs>
</svg>
