<svg width="320" height="240" viewBox="0 0 320 240" fill="none" xmlns="http://www.w3.org/2000/svg">
  <g clip-path="url(#clip0_finanzas_mobile)">
    <!-- Fondo suave -->
    <rect x="20" y="20" width="280" height="200" rx="12" fill="#3C3D5E" fill-opacity="0.05"/>
    
    <!-- Calculadora principal -->
    <rect x="120" y="50" width="80" height="100" rx="8" fill="white" stroke="#DCD3D1" stroke-width="1"/>
    <rect x="125" y="55" width="70" height="20" rx="4" fill="#232340"/>
    
    <!-- Pantalla con 7.9% -->
    <text x="160" y="68" font-family="Arial" font-size="10" font-weight="bold" fill="white" text-anchor="middle">7.9%</text>
    
    <!-- Botones simplificados -->
    <circle cx="135" cy="90" r="6" fill="#CFBAAD"/>
    <circle cx="150" cy="90" r="6" fill="#CFBAAD"/>
    <circle cx="170" cy="90" r="6" fill="#CFBAAD"/>
    <circle cx="185" cy="90" r="6" fill="#3E3F5F"/>
    
    <circle cx="135" cy="110" r="6" fill="#DCD3D1"/>
    <circle cx="150" cy="110" r="6" fill="#DCD3D1"/>
    <circle cx="170" cy="110" r="6" fill="#DCD3D1"/>
    <circle cx="185" cy="110" r="6" fill="#3E3F5F"/>
    
    <!-- Billete pequeño -->
    <rect x="50" y="100" width="40" height="20" rx="4" fill="#3C3D5E"/>
    <circle cx="70" cy="110" r="4" fill="#DCD3D1"/>
    
    <!-- Monedas -->
    <circle cx="240" cy="80" r="10" fill="#3E3F5F"/>
    <circle cx="250" cy="95" r="8" fill="#CFBAAD"/>
    
    <!-- Check -->
    <path d="M70 180L80 190L100 170" stroke="#3C3D5E" stroke-width="2" stroke-linecap="round"/>
    
    <!-- Texto "48h" -->
    <text x="220" y="180" font-family="Arial" font-size="12" font-weight="bold" fill="#3C3D5E">48h</text>
  </g>
  
  <defs>
    <clipPath id="clip0_finanzas_mobile">
      <rect width="320" height="240" fill="white"/>
    </clipPath>
  </defs>
</svg>
