<svg width="560" height="400" viewBox="0 0 560 400" fill="none" xmlns="http://www.w3.org/2000/svg">
  <g clip-path="url(#clip0_finanzas)">
    <!-- Fondo suave -->
    <rect x="36" y="36" width="488" height="328" rx="20" fill="#3C3D5E" fill-opacity="0.05"/>
    
    <!-- Calculadora principal -->
    <rect x="200" y="80" width="160" height="200" rx="12" fill="white" stroke="#DCD3D1" stroke-width="2"/>
    <rect x="210" y="90" width="140" height="40" rx="6" fill="#232340"/>
    
    <!-- Pantalla con 7.9% -->
    <text x="280" y="115" font-family="Arial" font-size="18" font-weight="bold" fill="white" text-anchor="middle">7.9%</text>
    
    <!-- Botones de calculadora -->
    <circle cx="230" cy="160" r="12" fill="#CFBAAD"/>
    <circle cx="260" cy="160" r="12" fill="#CFBAAD"/>
    <circle cx="290" cy="160" r="12" fill="#CFBAAD"/>
    <circle cx="320" cy="160" r="12" fill="#CFBAAD"/>
    
    <circle cx="230" cy="190" r="12" fill="#DCD3D1"/>
    <circle cx="260" cy="190" r="12" fill="#DCD3D1"/>
    <circle cx="290" cy="190" r="12" fill="#DCD3D1"/>
    <circle cx="320" cy="190" r="12" fill="#3E3F5F"/>
    
    <circle cx="230" cy="220" r="12" fill="#DCD3D1"/>
    <circle cx="260" cy="220" r="12" fill="#DCD3D1"/>
    <circle cx="290" cy="220" r="12" fill="#DCD3D1"/>
    <circle cx="320" cy="220" r="12" fill="#3E3F5F"/>
    
    <!-- Billete -->
    <rect x="80" y="180" width="80" height="40" rx="8" fill="#3C3D5E"/>
    <rect x="85" y="185" width="70" height="6" rx="3" fill="#CFBAAD"/>
    <circle cx="140" cy="200" r="8" fill="#DCD3D1"/>
    
    <!-- Monedas -->
    <circle cx="420" cy="160" r="20" fill="#3E3F5F"/>
    <circle cx="440" cy="180" r="16" fill="#CFBAAD"/>
    <circle cx="460" cy="200" r="12" fill="#DCD3D1"/>
    
    <!-- Flecha de aprobación -->
    <path d="M120 300L140 320L180 280" stroke="#3C3D5E" stroke-width="4" stroke-linecap="round" stroke-linejoin="round"/>
    
    <!-- Texto "48h" -->
    <text x="400" y="320" font-family="Arial" font-size="20" font-weight="bold" fill="#3C3D5E">48h</text>
    <text x="400" y="340" font-family="Arial" font-size="10" fill="#3E3F5F">aprobación</text>
  </g>
  
  <defs>
    <clipPath id="clip0_finanzas">
      <rect width="560" height="400" fill="white"/>
    </clipPath>
  </defs>
</svg>
